<svg width="32" height="33" viewBox="0 0 32 33" fill="none" xmlns="http://www.w3.org/2000/svg">
<g id="ic:baseline-apple">
<path id="Vector" d="M22.7323 27.54C21.4256 28.8067 19.9989 28.6067 18.6256 28.0067C17.1723 27.3933 15.8389 27.3667 14.3056 28.0067C12.3856 28.8333 11.3723 28.5933 10.2256 27.54C3.71892 20.8333 4.67892 10.62 12.0656 10.2467C13.8656 10.34 15.1189 11.2333 16.1723 11.3133C17.7456 10.9933 19.2522 10.0733 20.9323 10.1933C22.9456 10.3533 24.4656 11.1533 25.4656 12.5933C21.3056 15.0867 22.2922 20.5667 26.1056 22.1C25.3456 24.1 24.3589 26.0867 22.7189 27.5533L22.7323 27.54ZM16.0389 10.1667C15.8389 7.19333 18.2523 4.74 21.0256 4.5C21.4123 7.94 17.9056 10.5 16.0389 10.1667Z" fill="black"/>
</g>
</svg>
