<svg width="24" height="25" viewBox="0 0 24 25" fill="none" xmlns="http://www.w3.org/2000/svg">
<g id="mdi:facebook">
<path id="Vector" d="M12 2.88647C6.5 2.88647 2 7.37647 2 12.9065C2 17.9065 5.66 22.0565 10.44 22.8065V15.8065H7.9V12.9065H10.44V10.6965C10.44 8.18647 11.93 6.80647 14.22 6.80647C15.31 6.80647 16.45 6.99647 16.45 6.99647V9.46647H15.19C13.95 9.46647 13.56 10.2365 13.56 11.0265V12.9065H16.34L15.89 15.8065H13.56V22.8065C15.9164 22.4343 18.0622 21.232 19.6099 19.4165C21.1576 17.6011 22.0054 15.2921 22 12.9065C22 7.37647 17.5 2.88647 12 2.88647Z" fill="#D1D2D3"/>
</g>
</svg>
