<svg width="32" height="33" viewBox="0 0 32 33" fill="none" xmlns="http://www.w3.org/2000/svg">
<g id="ion:logo-google-playstore">
<path id="Vector" d="M3 4.21807V28.7806C3.00016 28.8339 3.01606 28.8859 3.04569 28.9302C3.07532 28.9745 3.11737 29.0091 3.16656 29.0296C3.21575 29.05 3.2699 29.0556 3.32222 29.0454C3.37453 29.0352 3.42268 29.0099 3.46062 28.9724L16.25 16.4999L3.46062 4.02619C3.42268 3.98878 3.37453 3.9634 3.32222 3.95324C3.2699 3.94308 3.21575 3.94859 3.16656 3.96909C3.11737 3.98958 3.07532 4.02414 3.04569 4.06843C3.01606 4.11272 3.00016 4.16478 3 4.21807ZM21.6125 11.3749L5.57625 2.53994L5.56625 2.53432C5.29 2.38432 5.0275 2.75807 5.25375 2.97557L17.8244 14.9956L21.6125 11.3749ZM5.255 30.0243C5.0275 30.2418 5.29 30.6156 5.5675 30.4656L5.5775 30.4599L21.6125 21.6249L17.8244 18.0031L5.255 30.0243ZM28.0863 14.9374L23.6081 12.4712L19.3975 16.4999L23.6081 20.5268L28.0863 18.0624C29.3044 17.3893 29.3044 15.6106 28.0863 14.9374Z" fill="black"/>
</g>
</svg>
