<svg width="200" height="57" viewBox="0 0 200 57" fill="none" xmlns="http://www.w3.org/2000/svg">
<g id="Grid">
<path id="Subtract" fill-rule="evenodd" clip-rule="evenodd" d="M28.0899 56.8465C43.6035 56.8465 56.1798 44.2702 56.1798 28.7566C56.1798 13.243 43.6035 0.666748 28.0899 0.666748C12.5763 0.666748 0 13.243 0 28.7566C0 44.2702 12.5763 56.8465 28.0899 56.8465ZM23.0589 14.9213H45.2084C46.9096 14.9213 47.9023 16.841 46.919 18.2292L35.0075 35.0454V22.0486L23.0589 14.9213Z" fill="#CDFC54"/>
<g id="Group 238564">
<path id="Vector" d="M191.065 43.1464C190.542 43.1464 190.057 43.057 189.616 42.8846C189.176 42.6995 188.799 42.4505 188.474 42.1249C188.154 41.7993 187.905 41.4227 187.727 40.9822C187.548 40.5417 187.465 40.0629 187.465 39.5458C187.465 39.0287 187.554 38.5499 187.727 38.1094C187.905 37.6689 188.161 37.2922 188.474 36.973C188.799 36.6474 189.176 36.3984 189.616 36.2261C190.057 36.0409 190.536 35.9515 191.065 35.9515C191.595 35.9515 192.061 36.0409 192.502 36.2261C192.942 36.3984 193.319 36.6538 193.645 36.973C193.97 37.2922 194.219 37.6689 194.392 38.1094C194.577 38.5499 194.666 39.0287 194.666 39.5458C194.666 40.0629 194.577 40.5481 194.392 40.9949C194.213 41.4354 193.964 41.8121 193.645 42.1377C193.319 42.4569 192.942 42.7059 192.502 42.8846C192.061 43.057 191.583 43.1464 191.065 43.1464ZM191.053 42.5271C191.621 42.5271 192.119 42.3994 192.553 42.1441C192.993 41.8823 193.338 41.5248 193.587 41.0843C193.843 40.6311 193.97 40.1203 193.97 39.5458C193.97 38.9712 193.843 38.4605 193.587 38.02C193.338 37.5667 192.993 37.2156 192.553 36.9602C192.119 36.7049 191.627 36.5772 191.065 36.5772C190.504 36.5772 189.999 36.7049 189.559 36.9602C189.118 37.2156 188.774 37.5667 188.525 38.0136C188.276 38.4605 188.148 38.9712 188.148 39.5521C188.148 40.1331 188.276 40.6374 188.525 41.0907C188.774 41.5376 189.118 41.8887 189.559 42.1505C189.999 42.4058 190.497 42.5335 191.059 42.5335L191.053 42.5271ZM189.45 41.627V37.4454H191.493C191.934 37.4454 192.266 37.5603 192.483 37.7965C192.706 38.0264 192.815 38.3264 192.815 38.7095C192.815 38.9776 192.751 39.2202 192.63 39.4309C192.515 39.6351 192.361 39.7947 192.164 39.916L193.013 41.627H191.838L191.168 40.1012H190.51V41.627H189.438H189.45ZM190.523 39.2968H191.238C191.378 39.2968 191.493 39.2521 191.583 39.1563C191.678 39.0542 191.723 38.9265 191.723 38.7733C191.723 38.6201 191.678 38.486 191.589 38.3966C191.5 38.3009 191.385 38.2562 191.231 38.2562H190.516V39.2968H190.523Z" fill="#CDFC54"/>
<path id="Vector_2" fill-rule="evenodd" clip-rule="evenodd" d="M122.922 14.7117C120.445 14.7117 118.325 16.4928 117.898 18.9315L114.789 36.7367C114.246 39.8585 116.646 42.7122 119.813 42.7122H129.491L128.751 47.098H117.278C114.833 47.098 112.739 48.8281 112.273 51.2285L111.086 56.8465L127.633 56.8082C133.373 56.3294 138.078 52.0648 139.112 46.3958L144.781 14.7117H138.442C135.965 14.7117 133.845 16.4928 133.417 18.9379L131.285 31.24H126.223L129.261 14.7117H122.922Z" fill="#CDFC54"/>
<path id="Vector_3" d="M70.2266 42.7122L74.2294 18.9635C74.6443 16.512 76.7702 14.7117 79.2536 14.7117H85.7398L84.0544 23.8217L92.4878 14.7117H98.2207L104.126 26.0115L105.396 18.9124C105.83 16.4801 107.944 14.7117 110.414 14.7117H116.773L112.47 38.5178C112.029 40.9438 109.916 42.7122 107.452 42.7122H101.253L93.4965 28.7119L82.1903 41.0587C81.2263 42.112 79.8601 42.7122 78.4301 42.7122H70.2266Z" fill="#CDFC54"/>
<path id="Vector_4" fill-rule="evenodd" clip-rule="evenodd" d="M157.055 14.7117C150.913 14.7117 145.659 19.1294 144.6 25.1815L141.535 42.7122H147.734C150.198 42.7122 152.311 40.9502 152.752 38.5178L155.101 25.5071H166.376C168.801 25.5071 170.889 23.8026 171.374 21.4213L172.74 14.7117H157.055Z" fill="#CDFC54"/>
<path id="Vector_5" fill-rule="evenodd" clip-rule="evenodd" d="M184.317 14.7117C178.175 14.7117 172.921 19.1294 171.861 25.1815L168.797 42.7122H174.996C177.46 42.7122 179.573 40.9502 180.014 38.5178L182.363 25.5071H193.644C196.07 25.5071 198.157 23.8026 198.642 21.4213L200.002 14.7117H184.317Z" fill="#CDFC54"/>
</g>
</g>
</svg>
