<svg width="107" height="32" viewBox="0 0 107 32" fill="none" xmlns="http://www.w3.org/2000/svg">
<g id="Group 239484">
<g id="Grid">
<path id="Subtract" fill-rule="evenodd" clip-rule="evenodd" d="M15.0282 31.0283C23.328 31.0283 30.0564 24.2999 30.0564 16.0001C30.0564 7.70027 23.328 0.971924 15.0282 0.971924C6.72834 0.971924 0 7.70027 0 16.0001C0 24.2999 6.72834 31.0283 15.0282 31.0283ZM12.3366 8.59816H24.1866C25.0968 8.59816 25.6279 9.62519 25.1018 10.3679L18.7291 19.3646V12.4113L12.3366 8.59816Z" fill="#121220"/>
<g id="Group 238564">
<path id="Vector" d="M102.219 23.6986C101.939 23.6986 101.68 23.6508 101.444 23.5586C101.208 23.4595 101.007 23.3263 100.833 23.1521C100.662 22.978 100.529 22.7764 100.433 22.5408C100.337 22.3051 100.293 22.0489 100.293 21.7723C100.293 21.4956 100.341 21.2395 100.433 21.0038C100.529 20.7681 100.665 20.5666 100.833 20.3958C101.007 20.2217 101.208 20.0884 101.444 19.9962C101.68 19.8972 101.936 19.8494 102.219 19.8494C102.503 19.8494 102.752 19.8972 102.988 19.9962C103.223 20.0884 103.425 20.2251 103.599 20.3958C103.773 20.5666 103.907 20.7681 103.999 21.0038C104.098 21.2395 104.146 21.4956 104.146 21.7723C104.146 22.0489 104.098 22.3085 103.999 22.5476C103.903 22.7833 103.77 22.9848 103.599 23.159C103.425 23.3298 103.223 23.463 102.988 23.5586C102.752 23.6508 102.496 23.6986 102.219 23.6986ZM102.212 23.3673C102.516 23.3673 102.783 23.299 103.015 23.1624C103.251 23.0224 103.435 22.8311 103.568 22.5954C103.705 22.3529 103.773 22.0797 103.773 21.7723C103.773 21.4649 103.705 21.1917 103.568 20.956C103.435 20.7135 103.251 20.5256 103.015 20.389C102.783 20.2524 102.52 20.1841 102.219 20.1841C101.919 20.1841 101.649 20.2524 101.413 20.389C101.178 20.5256 100.993 20.7135 100.86 20.9526C100.727 21.1917 100.658 21.4649 100.658 21.7757C100.658 22.0865 100.727 22.3563 100.86 22.5988C100.993 22.8379 101.178 23.0258 101.413 23.1658C101.649 23.3024 101.915 23.3707 102.216 23.3707L102.212 23.3673ZM101.355 22.8857V20.6486H102.448C102.684 20.6486 102.861 20.7101 102.978 20.8364C103.097 20.9594 103.155 21.1199 103.155 21.3249C103.155 21.4683 103.121 21.5981 103.056 21.7108C102.995 21.8201 102.913 21.9055 102.807 21.9704L103.261 22.8857H102.633L102.274 22.0694H101.922V22.8857H101.348H101.355ZM101.929 21.6391H102.312C102.387 21.6391 102.448 21.6152 102.496 21.5639C102.547 21.5093 102.571 21.441 102.571 21.359C102.571 21.277 102.547 21.2053 102.499 21.1575C102.452 21.1063 102.39 21.0824 102.308 21.0824H101.926V21.6391H101.929Z" fill="#121220"/>
<path id="Vector_2" fill-rule="evenodd" clip-rule="evenodd" d="M65.762 8.48608C64.4368 8.48608 63.3028 9.43901 63.074 10.7437L61.4107 20.2695C61.1203 21.9397 62.4046 23.4664 64.0986 23.4664H69.2765L68.8803 25.8129H62.7427C61.4346 25.8129 60.3143 26.7385 60.065 28.0227L59.4297 31.0284L68.2826 31.0079C71.3532 30.7517 73.8704 28.4701 74.4237 25.4372L77.4567 8.48608H74.0651C72.7399 8.48608 71.6059 9.43901 71.3771 10.7471L70.2363 17.3288H67.5278L69.1536 8.48608H65.762Z" fill="#121220"/>
<path id="Vector_3" d="M37.5703 23.4664L39.7118 10.7608C39.9338 9.44925 41.0712 8.48608 42.3998 8.48608H45.87L44.9683 13.36L49.4801 8.48608H52.5473L55.7066 14.5315L56.3863 10.7335C56.6185 9.43218 57.7491 8.48608 59.0709 8.48608H62.4727L60.1706 21.2225C59.935 22.5204 58.8044 23.4664 57.4861 23.4664H54.1696L50.0198 15.9763L43.971 22.5818C43.4552 23.1454 42.7243 23.4664 41.9592 23.4664H37.5703Z" fill="#121220"/>
<path id="Vector_4" fill-rule="evenodd" clip-rule="evenodd" d="M84.0257 8.48608C80.74 8.48608 77.9291 10.8496 77.3621 14.0875L75.7227 23.4664H79.0391C80.3575 23.4664 81.488 22.5238 81.7237 21.2225L82.9806 14.2617H89.0123C90.3102 14.2617 91.4271 13.3498 91.6867 12.0758L92.4176 8.48608H84.0257Z" fill="#121220"/>
<path id="Vector_5" fill-rule="evenodd" clip-rule="evenodd" d="M98.6117 8.48608C95.326 8.48608 92.515 10.8496 91.948 14.0875L90.3086 23.4664H93.625C94.9434 23.4664 96.074 22.5238 96.3096 21.2225L97.5665 14.2617H103.602C104.9 14.2617 106.016 13.3498 106.276 12.0758L107.004 8.48608H98.6117Z" fill="#121220"/>
</g>
</g>
<g id="BLOG">
<path id="Vector_6" d="M93.3399 29.2348C92.5703 29.2348 91.9932 29.072 91.6084 28.7465C91.2236 28.4209 91.0312 27.927 91.0312 27.2647C91.0312 26.8319 91.1293 26.4693 91.3254 26.177C91.5215 25.881 91.8045 25.659 92.1745 25.511C92.5481 25.3631 92.994 25.2891 93.5119 25.2891C93.8486 25.2891 94.1557 25.3187 94.4332 25.3779C94.7106 25.4334 94.9493 25.5203 95.1491 25.6387C95.3525 25.7534 95.5079 25.8995 95.6152 26.0771C95.7262 26.2547 95.7817 26.4637 95.7817 26.7042H94.9604C94.9604 26.571 94.9215 26.4582 94.8438 26.3657C94.7661 26.2732 94.6607 26.201 94.5275 26.1493C94.3943 26.0938 94.2426 26.0549 94.0724 26.0327C93.9059 26.0068 93.7302 25.9939 93.5452 25.9939C93.3084 25.9939 93.0883 26.0179 92.8848 26.066C92.685 26.1104 92.5111 26.1825 92.3632 26.2824C92.2152 26.3786 92.1005 26.5026 92.0191 26.6543C91.9377 26.806 91.897 26.9854 91.897 27.1926V27.3258C91.897 27.6143 91.9599 27.8474 92.0857 28.025C92.2115 28.1989 92.3891 28.3265 92.6184 28.4079C92.8515 28.4893 93.1253 28.53 93.4398 28.53C93.7876 28.53 94.0724 28.4986 94.2944 28.4357C94.5201 28.3728 94.6866 28.2822 94.7939 28.1638C94.9049 28.0454 94.9604 27.9066 94.9604 27.7475V27.7031H93.4176V27.0372H95.7873V29.1682H95.2656L95.1768 28.6688C95.0399 28.802 94.8753 28.9111 94.6829 28.9962C94.4942 29.0776 94.2852 29.1368 94.0558 29.1738C93.8301 29.2145 93.5915 29.2348 93.3399 29.2348Z" fill="#121220"/>
<path id="Vector_7" d="M87.5857 29.2348C87.0789 29.2348 86.6423 29.159 86.276 29.0073C85.9098 28.8519 85.6267 28.6281 85.4269 28.3358C85.2309 28.0398 85.1328 27.6809 85.1328 27.2592C85.1328 26.8374 85.2309 26.4804 85.4269 26.1881C85.6267 25.8958 85.9098 25.6738 86.276 25.5221C86.6423 25.3668 87.0789 25.2891 87.5857 25.2891C88.0926 25.2891 88.5292 25.3668 88.8954 25.5221C89.2617 25.6738 89.5429 25.8958 89.739 26.1881C89.9388 26.4804 90.0387 26.8374 90.0387 27.2592C90.0387 27.6809 89.9388 28.0398 89.739 28.3358C89.5429 28.6281 89.2617 28.8519 88.8954 29.0073C88.5292 29.159 88.0926 29.2348 87.5857 29.2348ZM87.5857 28.53C87.8151 28.53 88.026 28.5041 88.2184 28.4523C88.4108 28.4005 88.5773 28.3247 88.7179 28.2248C88.8621 28.1249 88.9731 27.9991 89.0508 27.8474C89.1322 27.6957 89.1729 27.52 89.1729 27.3202V27.1926C89.1729 26.9928 89.1322 26.8189 89.0508 26.6709C88.9731 26.5192 88.8621 26.3934 88.7179 26.2935C88.5773 26.1936 88.4108 26.1197 88.2184 26.0716C88.026 26.0198 87.8151 25.9939 87.5857 25.9939C87.3564 25.9939 87.1455 26.0198 86.9531 26.0716C86.7607 26.1197 86.5924 26.1936 86.4481 26.2935C86.3075 26.3934 86.1983 26.5192 86.1206 26.6709C86.0429 26.8189 86.0041 26.9928 86.0041 27.1926V27.3202C86.0041 27.52 86.0429 27.6957 86.1206 27.8474C86.1983 27.9991 86.3075 28.1249 86.4481 28.2248C86.5924 28.3247 86.7607 28.4005 86.9531 28.4523C87.1455 28.5041 87.3564 28.53 87.5857 28.53Z" fill="#121220"/>
<path id="Vector_8" d="M81.3594 29.1683V25.3557H82.2029V28.4246H84.6225V29.1683H81.3594Z" fill="#121220"/>
<path id="Vector_9" d="M76.1445 29.1683V25.3557H79.0914C79.2949 25.3557 79.4761 25.3964 79.6352 25.4778C79.798 25.5555 79.9257 25.6646 80.0182 25.8052C80.1107 25.9458 80.1569 26.1105 80.1569 26.2991C80.1569 26.4434 80.1291 26.5748 80.0737 26.6932C80.0182 26.8116 79.9423 26.9115 79.8461 26.9928C79.7536 27.0705 79.6482 27.1297 79.5298 27.1704V27.1926C79.6704 27.2222 79.7962 27.2796 79.9072 27.3647C80.0182 27.4461 80.1051 27.5515 80.168 27.681C80.2309 27.8068 80.2623 27.9529 80.2623 28.1194C80.2623 28.3562 80.2087 28.5523 80.1014 28.7077C79.9978 28.8631 79.8572 28.9796 79.6796 29.0573C79.5057 29.1313 79.3097 29.1683 79.0914 29.1683H76.1445ZM76.9881 28.4635H78.9193C79.0599 28.4635 79.1746 28.4283 79.2634 28.3581C79.3522 28.2878 79.3966 28.1768 79.3966 28.0251C79.3966 27.9363 79.3781 27.8586 79.3411 27.792C79.3041 27.7217 79.2486 27.668 79.1746 27.6311C79.1006 27.5941 79.0044 27.5756 78.886 27.5756H76.9881V28.4635ZM76.9881 26.8874H78.8194C78.923 26.8874 79.01 26.8708 79.0803 26.8375C79.1506 26.8005 79.2042 26.7505 79.2412 26.6876C79.2782 26.6247 79.2967 26.5563 79.2967 26.4823C79.2967 26.3417 79.256 26.2363 79.1746 26.166C79.0932 26.0957 78.9859 26.0605 78.8527 26.0605H76.9881V26.8874Z" fill="#121220"/>
</g>
</g>
</svg>
