<svg width="24" height="25" viewBox="0 0 24 25" fill="none" xmlns="http://www.w3.org/2000/svg">
<g id="mdi:linkedin">
<path id="Vector" d="M19 3.84644C19.5304 3.84644 20.0391 4.05715 20.4142 4.43222C20.7893 4.80729 21 5.316 21 5.84644V19.8464C21 20.3769 20.7893 20.8856 20.4142 21.2606C20.0391 21.6357 19.5304 21.8464 19 21.8464H5C4.46957 21.8464 3.96086 21.6357 3.58579 21.2606C3.21071 20.8856 3 20.3769 3 19.8464V5.84644C3 5.316 3.21071 4.80729 3.58579 4.43222C3.96086 4.05715 4.46957 3.84644 5 3.84644H19ZM18.5 19.3464V14.0464C18.5 13.1818 18.1565 12.3526 17.5452 11.7413C16.9338 11.1299 16.1046 10.7864 15.24 10.7864C14.39 10.7864 13.4 11.3064 12.92 12.0864V10.9764H10.13V19.3464H12.92V14.4164C12.92 13.6464 13.54 13.0164 14.31 13.0164C14.6813 13.0164 15.0374 13.1639 15.2999 13.4265C15.5625 13.689 15.71 14.0451 15.71 14.4164V19.3464H18.5ZM6.88 9.40644C7.32556 9.40644 7.75288 9.22944 8.06794 8.91438C8.383 8.59931 8.56 8.172 8.56 7.72644C8.56 6.79644 7.81 6.03644 6.88 6.03644C6.43178 6.03644 6.00193 6.21449 5.68499 6.53142C5.36805 6.84836 5.19 7.27822 5.19 7.72644C5.19 8.65644 5.95 9.40644 6.88 9.40644ZM8.27 19.3464V10.9764H5.5V19.3464H8.27Z" fill="#D1D2D3"/>
</g>
</svg>
