<svg width="24" height="25" viewBox="0 0 24 25" fill="none" xmlns="http://www.w3.org/2000/svg">
<g id="fa6-brands:square-x-twitter">
<path id="Vector" d="M5.57143 3.84644C4.15313 3.84644 3 4.99956 3 6.41786V19.275C3 20.6933 4.15313 21.8464 5.57143 21.8464H18.4286C19.8469 21.8464 21 20.6933 21 19.275V6.41786C21 4.99956 19.8469 3.84644 18.4286 3.84644H5.57143ZM17.5085 7.22144L13.3379 11.9866L18.2437 18.4714H14.4027L11.3973 14.538L7.95402 18.4714H6.04554L10.5054 13.3728L5.80045 7.22144H9.73795L12.458 10.8174L15.6 7.22144H17.5085ZM15.9897 17.3304L9.16339 8.30224H8.02634L14.929 17.3304H15.9857H15.9897Z" fill="#D1D2D3"/>
</g>
</svg>
